<svg id="svg" xmlns="http://www.w3.org/2000/svg" xmlns:xlink="http://www.w3.org/1999/xlink" width="400" height="400" viewBox="0, 0, 400,400" version="1.1"><g id="svgg"><path id="path0" d="M182.162 6.877 C 179.103 10.452,175.574 14.568,174.321 16.023 L 172.042 18.669 181.188 26.512 L 190.334 34.354 195.867 27.889 C 198.910 24.332,202.433 20.223,203.696 18.758 L 205.991 16.093 197.696 8.981 C 193.133 5.070,189.023 1.534,188.562 1.124 C 187.728 0.381,187.700 0.406,182.162 6.877 M228.035 10.360 C 222.693 14.061,218.313 17.222,218.301 17.386 C 218.290 17.549,221.297 22.053,224.983 27.394 L 231.687 37.105 240.944 30.694 C 246.035 27.168,250.495 24.082,250.855 23.836 C 251.472 23.414,248.157 18.282,238.373 4.513 C 237.749 3.634,237.705 3.659,228.035 10.360 M133.273 20.250 C 130.373 26.055,128.000 30.892,128.000 31.001 C 128.000 31.109,132.826 33.611,138.724 36.562 L 149.448 41.927 154.824 31.107 C 158.678 23.350,160.047 20.233,159.661 20.097 C 159.364 19.993,154.492 17.610,148.833 14.801 L 138.545 9.696 133.273 20.250 M273.800 23.384 C 266.438 26.204,263.035 27.692,263.111 28.060 C 263.281 28.894,270.786 48.933,271.143 49.510 C 271.435 49.980,292.333 42.546,293.318 41.622 C 293.723 41.242,285.537 19.204,285.000 19.230 C 284.780 19.240,279.740 21.110,273.800 23.384 M93.201 31.073 C 93.201 31.253,92.092 36.485,90.735 42.701 C 89.379 48.916,88.380 54.113,88.516 54.249 C 89.350 55.084,111.415 59.459,111.698 58.846 C 112.144 57.881,116.832 36.299,116.638 36.105 C 116.547 36.013,111.550 34.866,105.536 33.557 C 99.521 32.247,94.285 31.079,93.900 30.961 C 93.515 30.843,93.200 30.893,93.201 31.073 M314.400 47.291 C 308.790 47.721,304.163 48.108,304.117 48.152 C 303.992 48.273,305.690 71.777,305.836 71.948 C 306.008 72.150,329.324 70.410,329.556 70.178 C 329.737 69.996,328.605 52.603,328.144 48.500 L 327.908 46.400 326.254 46.455 C 325.344 46.485,320.010 46.862,314.400 47.291 M61.838 62.300 L 54.676 62.419 54.936 68.709 C 55.080 72.169,55.198 77.565,55.199 80.700 L 55.200 86.400 61.700 86.399 C 65.275 86.398,70.730 86.281,73.822 86.140 L 79.445 85.883 79.318 80.041 C 79.248 76.829,79.084 71.455,78.953 68.100 L 78.716 62.000 73.858 62.090 C 71.186 62.140,65.777 62.234,61.838 62.300 M142.961 77.994 C 121.180 78.164,116.404 78.298,115.852 78.757 C 115.483 79.063,115.067 79.200,114.927 79.060 C 114.559 78.692,113.565 79.620,113.845 80.072 C 113.974 80.282,113.832 80.396,113.528 80.327 C 113.225 80.257,112.982 80.311,112.988 80.447 C 113.009 80.891,109.171 83.629,108.826 83.416 C 108.642 83.302,108.268 83.477,107.996 83.804 C 107.724 84.132,107.644 84.400,107.817 84.400 C 108.295 84.400,104.346 87.397,103.840 87.418 C 103.598 87.428,103.452 87.675,103.516 87.967 C 103.589 88.298,103.403 88.410,103.021 88.263 C 102.685 88.134,102.452 88.181,102.505 88.366 C 102.636 88.833,100.866 91.200,100.385 91.200 C 100.027 91.200,94.037 97.106,90.879 100.572 C 90.153 101.369,89.400 101.924,89.207 101.804 C 89.014 101.685,88.742 101.770,88.604 101.993 C 88.434 102.268,105.110 102.400,139.976 102.400 L 191.600 102.400 191.600 129.600 L 191.600 156.800 159.224 156.800 L 126.848 156.800 123.924 157.849 C 122.316 158.426,120.940 159.056,120.867 159.249 C 120.793 159.442,120.572 159.600,120.375 159.600 C 120.178 159.600,119.248 160.442,118.308 161.470 C 117.369 162.499,116.195 163.785,115.700 164.329 C 115.205 164.872,114.800 165.610,114.800 165.969 C 114.800 166.328,114.485 167.067,114.100 167.611 C 113.077 169.056,112.787 320.933,113.808 320.541 C 114.209 320.388,114.391 320.499,114.316 320.851 C 114.250 321.164,114.474 321.356,114.838 321.297 C 115.189 321.240,115.915 321.600,116.451 322.097 C 117.475 323.046,117.747 323.200,118.400 323.200 C 118.620 323.200,118.755 323.425,118.700 323.700 C 118.645 323.975,118.872 324.157,119.204 324.105 C 119.891 323.996,122.119 325.767,121.926 326.269 C 121.857 326.450,122.070 326.599,122.400 326.599 C 123.375 326.600,126.822 328.441,126.580 328.832 C 126.458 329.029,126.667 329.072,127.045 328.927 C 127.547 328.735,127.644 328.806,127.404 329.194 C 127.187 329.545,127.231 329.628,127.535 329.440 C 128.055 329.119,129.108 329.596,129.212 330.200 C 129.249 330.420,129.412 330.565,129.573 330.522 C 130.069 330.391,136.815 333.851,136.560 334.106 C 136.429 334.238,136.699 334.247,137.160 334.126 L 138.000 333.907 138.000 266.654 L 138.000 199.402 175.577 236.977 C 196.244 257.643,213.045 274.743,212.913 274.976 C 212.780 275.209,212.828 275.258,213.018 275.084 C 213.417 274.721,238.800 299.938,238.800 300.698 C 238.800 300.974,239.087 301.200,239.437 301.200 C 239.788 301.200,240.173 301.574,240.292 302.031 C 240.412 302.488,240.935 303.023,241.455 303.221 C 241.975 303.418,242.400 303.855,242.400 304.190 C 242.400 304.526,242.670 304.800,243.000 304.800 C 243.330 304.800,243.600 305.070,243.600 305.400 C 243.600 305.730,243.874 306.000,244.210 306.000 C 244.545 306.000,244.991 306.450,245.200 307.000 C 245.409 307.550,245.834 308.000,246.143 308.000 C 246.453 308.000,246.801 308.360,246.916 308.800 C 247.031 309.240,247.391 309.600,247.716 309.600 C 248.041 309.600,248.401 309.960,248.516 310.400 C 248.631 310.840,249.012 311.200,249.363 311.200 C 249.713 311.200,250.000 311.425,250.000 311.700 C 250.000 313.945,270.303 332.134,270.664 330.213 C 270.770 329.652,271.972 329.136,272.465 329.440 C 272.724 329.600,272.815 329.548,272.675 329.321 C 272.538 329.099,273.439 328.405,274.678 327.778 C 275.917 327.151,277.427 326.220,278.035 325.709 C 278.642 325.198,279.288 324.829,279.470 324.890 C 279.651 324.950,279.829 324.836,279.864 324.636 C 279.966 324.058,281.162 323.529,281.665 323.840 C 281.933 324.006,282.015 323.948,281.862 323.701 C 281.583 323.249,284.198 321.441,285.200 321.392 C 285.530 321.376,285.748 321.124,285.684 320.832 C 285.613 320.510,285.798 320.390,286.154 320.527 C 286.477 320.651,286.957 320.493,287.220 320.176 C 287.483 319.859,287.559 319.600,287.389 319.600 C 287.219 319.600,287.854 319.040,288.799 318.355 L 290.518 317.109 281.459 308.070 L 272.400 299.031 272.400 200.715 L 272.400 102.400 292.024 102.400 C 305.214 102.400,311.565 102.267,311.396 101.993 C 311.258 101.770,311.003 101.674,310.831 101.781 C 310.477 102.000,308.545 100.083,308.700 99.668 C 308.755 99.520,308.648 99.400,308.461 99.400 C 307.952 99.400,304.203 95.603,304.182 95.066 C 304.172 94.810,303.971 94.637,303.736 94.682 C 303.501 94.727,302.490 93.886,301.490 92.813 C 300.489 91.740,299.594 90.939,299.501 91.033 C 299.290 91.243,296.162 87.898,296.300 87.609 C 296.355 87.494,296.220 87.377,296.000 87.350 C 295.780 87.323,295.465 87.277,295.300 87.248 C 294.876 87.175,291.894 84.400,292.240 84.400 C 292.396 84.400,292.202 84.044,291.809 83.609 C 291.415 83.175,290.944 82.911,290.762 83.023 C 290.409 83.242,287.213 81.079,287.079 80.531 C 287.036 80.352,286.757 80.261,286.460 80.329 C 286.163 80.398,286.026 80.282,286.155 80.072 C 286.428 79.630,285.445 78.688,285.086 79.047 C 284.954 79.179,284.313 78.908,283.661 78.444 L 282.477 77.600 225.938 77.694 C 194.842 77.746,157.503 77.881,142.961 77.994 M338.222 79.671 C 337.277 83.893,334.428 102.182,334.679 102.411 C 335.126 102.817,357.593 106.541,357.878 106.255 C 358.180 105.954,362.091 83.157,361.877 82.944 C 361.788 82.855,356.964 81.975,351.157 80.989 C 345.351 80.003,340.112 79.094,339.515 78.970 C 338.615 78.782,338.394 78.902,338.222 79.671 M36.800 99.607 C 30.530 101.316,25.421 102.869,25.448 103.057 C 25.595 104.122,31.365 125.442,31.563 125.653 C 32.170 126.300,54.603 119.754,54.476 118.967 C 54.225 117.418,48.679 96.992,48.443 96.749 C 48.310 96.611,43.070 97.897,36.800 99.607 M247.600 188.247 L 247.600 274.093 246.100 272.734 C 245.275 271.987,224.265 251.091,199.411 226.299 L 154.222 181.224 179.011 181.112 L 203.800 181.000 206.000 180.017 C 207.210 179.477,209.158 178.127,210.328 177.017 C 211.498 175.908,212.623 174.940,212.828 174.867 C 213.033 174.793,213.200 174.478,213.200 174.167 C 213.200 173.855,213.348 173.600,213.530 173.600 C 213.711 173.600,214.341 172.115,214.931 170.300 L 216.003 167.000 216.002 134.700 L 216.000 102.400 231.800 102.400 L 247.600 102.400 247.600 188.247 M363.659 117.900 C 363.349 118.489,356.636 133.881,354.960 137.849 L 354.432 139.098 365.134 143.749 C 371.020 146.307,376.008 148.400,376.218 148.400 C 376.575 148.400,386.160 126.825,385.913 126.581 C 385.723 126.393,364.498 117.200,364.255 117.200 C 364.130 117.200,363.862 117.515,363.659 117.900 M17.001 143.215 C 11.502 146.283,6.953 148.942,6.892 149.125 C 6.807 149.378,17.655 169.330,18.196 169.920 C 18.318 170.052,38.428 158.923,38.889 158.468 C 39.250 158.111,27.948 137.607,27.400 137.624 C 27.180 137.631,22.501 140.147,17.001 143.215 M372.016 169.856 C 365.967 177.672,364.809 179.375,365.258 179.796 C 367.569 181.966,383.739 194.013,383.977 193.743 C 385.022 192.563,398.000 175.591,398.090 175.288 C 398.174 175.003,381.713 161.906,379.726 160.678 C 379.500 160.538,376.031 164.668,372.016 169.856 M8.761 190.338 L 0.122 198.600 2.446 201.200 C 3.724 202.630,7.438 206.577,10.699 209.970 L 16.627 216.140 21.414 211.593 C 24.046 209.092,27.961 205.355,30.113 203.289 L 34.027 199.532 26.952 192.066 C 23.060 187.960,19.319 184.032,18.638 183.338 L 17.400 182.075 8.761 190.338 M374.208 214.815 C 369.152 218.741,364.954 222.138,364.879 222.363 C 364.693 222.921,378.778 241.010,379.359 240.959 C 379.855 240.916,397.411 227.429,397.808 226.787 C 397.981 226.508,385.473 209.857,383.649 207.938 C 383.512 207.793,379.263 210.888,374.208 214.815 M12.203 238.420 C 8.740 243.931,5.973 248.489,6.053 248.548 C 6.134 248.608,10.340 251.240,15.400 254.397 C 20.460 257.554,24.983 260.383,25.450 260.682 C 26.233 261.184,38.835 242.547,38.790 240.954 C 38.779 240.555,19.519 228.400,18.899 228.400 C 18.679 228.400,15.666 232.909,12.203 238.420 M364.781 257.747 L 353.763 262.534 358.549 273.585 L 363.336 284.636 374.391 279.848 L 385.447 275.060 380.925 264.630 C 378.438 258.893,376.268 253.921,376.102 253.581 C 375.850 253.064,373.970 253.756,364.781 257.747 M27.504 284.272 C 25.801 290.580,24.451 295.768,24.504 295.801 C 24.825 296.003,45.973 301.603,46.748 301.692 C 47.548 301.783,54.417 279.702,53.832 278.919 C 53.701 278.743,31.664 272.800,31.149 272.801 C 30.769 272.802,29.649 276.325,27.504 284.272 M344.977 296.898 L 333.354 298.917 335.327 310.775 L 337.301 322.633 349.168 320.628 L 361.036 318.622 359.054 306.711 C 357.964 300.160,356.965 294.818,356.836 294.840 C 356.706 294.862,351.370 295.788,344.977 296.898 M53.862 324.167 C 53.718 330.748,53.645 336.169,53.700 336.212 C 53.755 336.255,59.136 336.410,65.657 336.557 L 77.515 336.824 77.752 330.712 C 77.883 327.350,78.048 321.963,78.118 318.739 L 78.246 312.878 71.823 312.637 C 68.290 312.505,62.863 312.352,59.762 312.298 L 54.124 312.200 53.862 324.167 M303.625 340.220 C 302.884 346.706,302.383 352.116,302.510 352.243 C 302.964 352.698,325.736 355.227,325.970 354.849 C 326.242 354.409,328.936 331.594,328.736 331.420 C 328.661 331.356,323.650 330.731,317.600 330.033 C 311.550 329.335,306.233 328.688,305.785 328.596 C 305.004 328.434,304.916 328.905,303.625 340.220 M98.200 342.171 C 88.257 344.387,87.003 344.753,87.022 345.433 C 87.099 348.042,91.854 367.998,92.400 367.998 C 93.197 367.998,114.915 363.218,115.140 362.993 C 115.486 362.647,110.240 339.601,109.824 339.638 C 109.591 339.658,104.360 340.798,98.200 342.171 M268.648 353.479 C 263.169 367.838,261.296 373.035,261.527 373.231 C 261.940 373.581,283.650 381.689,283.760 381.535 C 284.031 381.155,291.999 359.723,291.993 359.390 C 291.988 359.082,272.219 351.365,270.191 350.879 C 269.890 350.807,269.268 351.854,268.648 353.479 M137.000 362.866 C 131.280 365.739,126.517 368.167,126.415 368.263 C 126.211 368.454,136.436 389.160,136.872 389.439 C 137.182 389.637,158.400 379.380,158.400 379.032 C 158.400 378.605,147.808 357.600,147.604 357.622 C 147.492 357.633,142.720 359.993,137.000 362.866 M223.197 373.028 C 219.410 378.441,216.466 383.011,216.655 383.183 C 216.845 383.354,221.272 386.480,226.493 390.129 L 235.986 396.763 242.793 387.033 C 246.537 381.681,249.600 377.205,249.600 377.086 C 249.600 376.967,246.045 374.388,241.700 371.354 C 237.355 368.320,232.964 365.241,231.941 364.511 L 230.083 363.184 223.197 373.028 M179.520 373.265 C 174.536 377.519,170.491 381.125,170.530 381.277 C 170.653 381.763,185.758 399.200,186.055 399.200 C 186.414 399.200,203.782 384.319,203.946 383.872 C 204.012 383.691,201.017 380.001,197.291 375.672 C 193.565 371.342,190.080 367.289,189.548 366.665 L 188.580 365.529 179.520 373.265 " stroke="none" fill="#f47c14" fill-rule="evenodd"></path><path id="path1" d="M117.868 161.446 C 117.025 162.229,116.407 162.940,116.494 163.027 C 116.581 163.114,117.352 162.469,118.207 161.593 C 120.134 159.619,119.929 159.530,117.868 161.446 M210.492 176.845 C 208.109 179.137,208.262 179.365,210.697 177.151 C 212.135 175.842,213.050 174.786,212.724 174.809 C 212.656 174.813,211.651 175.730,210.492 176.845 M159.000 186.000 C 161.192 188.200,163.063 190.000,163.159 190.000 C 163.255 190.000,163.258 189.923,163.167 189.829 C 163.075 189.735,161.329 187.935,159.286 185.829 C 157.243 183.723,155.446 182.000,155.293 182.000 C 155.140 182.000,156.808 183.800,159.000 186.000 M164.162 191.142 C 165.009 192.095,165.200 192.182,165.200 191.614 C 165.200 191.402,164.795 191.016,164.300 190.756 C 163.405 190.286,163.404 190.288,164.162 191.142 M167.385 194.317 C 168.477 195.463,169.416 196.400,169.472 196.400 C 169.888 196.400,168.807 195.140,167.256 193.817 L 165.400 192.234 167.385 194.317 M172.962 199.942 C 173.809 200.895,174.000 200.982,174.000 200.414 C 174.000 200.202,173.595 199.816,173.100 199.556 C 172.205 199.086,172.204 199.088,172.962 199.942 M138.151 199.800 C 139.159 201.069,238.800 300.774,238.800 300.514 C 238.800 300.341,216.082 277.519,188.316 249.799 C 160.550 222.080,137.976 199.580,138.151 199.800 M174.400 201.325 C 174.400 201.394,174.985 201.979,175.700 202.625 L 177.000 203.800 175.825 202.500 C 174.730 201.288,174.400 201.016,174.400 201.325 M178.600 205.600 C 179.459 206.480,180.237 207.200,180.328 207.200 C 180.665 207.200,177.786 204.066,177.419 204.034 C 177.209 204.015,177.741 204.720,178.600 205.600 M187.600 214.525 C 187.600 214.594,188.185 215.179,188.900 215.825 L 190.200 217.000 189.025 215.700 C 187.930 214.488,187.600 214.216,187.600 214.525 M192.185 219.152 C 193.277 220.278,194.245 221.200,194.336 221.200 C 194.624 221.200,191.050 217.407,190.615 217.252 C 190.387 217.170,191.093 218.025,192.185 219.152 M196.383 223.351 C 197.364 224.368,198.240 225.200,198.330 225.200 C 198.623 225.200,195.460 221.804,195.024 221.651 C 194.791 221.569,195.402 222.334,196.383 223.351 M200.383 227.354 C 201.364 228.369,202.237 229.200,202.323 229.200 C 202.647 229.200,200.165 226.492,199.400 226.011 C 198.960 225.734,199.402 226.339,200.383 227.354 M203.570 230.532 C 204.589 231.654,204.808 231.793,204.787 231.300 C 204.781 231.135,204.286 230.654,203.687 230.232 L 202.600 229.464 203.570 230.532 M205.200 232.125 C 205.200 232.194,205.785 232.779,206.500 233.425 L 207.800 234.600 206.625 233.300 C 205.530 232.088,205.200 231.816,205.200 232.125 " stroke="none" fill="#f4741c" fill-rule="evenodd"></path><path id="path2" d="M129.700 77.900 C 136.905 77.961,148.695 77.961,155.900 77.900 C 163.105 77.839,157.210 77.789,142.800 77.789 C 128.390 77.789,122.495 77.839,129.700 77.900 M191.200 129.398 L 191.200 156.395 160.100 156.500 L 129.000 156.605 160.300 156.702 L 191.600 156.800 191.600 129.600 C 191.600 114.640,191.510 102.400,191.400 102.400 C 191.290 102.400,191.200 114.549,191.200 129.398 M112.995 237.000 C 112.995 272.860,113.042 287.471,113.100 269.468 C 113.158 251.466,113.158 222.126,113.100 204.268 C 113.042 186.411,112.995 201.140,112.995 237.000 M166.529 181.500 C 173.089 181.562,183.709 181.561,190.129 181.500 C 196.548 181.438,191.180 181.387,178.200 181.388 C 165.220 181.388,159.968 181.438,166.529 181.500 M232.400 294.600 C 233.146 295.370,233.847 296.000,233.957 296.000 C 234.067 296.000,233.546 295.370,232.800 294.600 C 232.054 293.830,231.353 293.200,231.243 293.200 C 231.133 293.200,231.654 293.830,232.400 294.600 " stroke="none" fill="#f46c24" fill-rule="evenodd"></path><path id="path3" d="M177.600 239.725 C 177.600 239.794,178.185 240.379,178.900 241.025 L 180.200 242.200 179.025 240.900 C 177.930 239.688,177.600 239.416,177.600 239.725 M192.000 254.125 C 192.000 254.194,192.585 254.779,193.300 255.425 L 194.600 256.600 193.425 255.300 C 192.330 254.088,192.000 253.816,192.000 254.125 " stroke="none" fill="#f48014" fill-rule="evenodd"></path><path id="path4" d="M177.600 239.725 C 177.600 239.794,178.185 240.379,178.900 241.025 L 180.200 242.200 179.025 240.900 C 177.930 239.688,177.600 239.416,177.600 239.725 M192.000 254.125 C 192.000 254.194,192.585 254.779,193.300 255.425 L 194.600 256.600 193.425 255.300 C 192.330 254.088,192.000 253.816,192.000 254.125 " stroke="none" fill="#f48014" fill-rule="evenodd"></path></g></svg>