<svg id="svg" xmlns="http://www.w3.org/2000/svg" xmlns:xlink="http://www.w3.org/1999/xlink" width="400" height="400" viewBox="0, 0, 400,400" version="1.1"><g id="svgg"><path id="path0" d="M154.655 11.400 C 154.453 11.927,149.747 12.002,115.713 12.013 C 82.251 12.024,76.894 12.105,76.221 12.615 C 75.793 12.939,75.148 13.110,74.788 12.996 C 73.950 12.730,72.611 14.166,73.038 14.875 C 73.275 15.270,73.183 15.262,72.667 14.843 C 72.290 14.537,71.933 14.357,71.874 14.443 C 70.651 16.245,69.484 17.575,69.251 17.431 C 69.088 17.330,68.624 17.688,68.220 18.225 C 67.675 18.951,67.354 19.094,66.974 18.779 C 66.576 18.448,66.516 18.559,66.701 19.277 C 66.904 20.066,66.851 20.128,66.329 19.701 C 65.619 19.119,63.722 20.427,64.187 21.179 C 64.330 21.410,64.258 21.600,64.027 21.600 C 63.796 21.600,63.091 22.140,62.460 22.800 C 61.829 23.460,61.130 24.000,60.906 24.000 C 60.681 24.000,60.274 24.270,60.000 24.600 C 59.726 24.930,59.147 25.200,58.714 25.200 C 58.259 25.200,57.836 25.542,57.714 26.008 C 57.537 26.686,57.402 26.734,56.882 26.308 C 56.346 25.870,56.294 25.927,56.500 26.724 C 56.655 27.329,56.541 27.725,56.169 27.867 C 55.856 27.987,55.600 28.305,55.600 28.573 C 55.600 29.316,53.812 30.834,52.852 30.906 C 52.383 30.941,52.000 31.157,52.000 31.385 C 52.000 31.613,51.370 32.303,50.600 32.917 C 49.830 33.531,49.200 34.258,49.200 34.531 C 49.200 35.123,45.154 39.200,44.566 39.200 C 44.098 39.200,41.600 41.681,41.600 42.146 C 41.600 42.679,39.022 45.585,38.543 45.593 C 38.291 45.597,37.978 45.881,37.846 46.225 C 37.714 46.569,37.416 46.734,37.185 46.591 C 36.732 46.311,35.600 47.070,35.600 47.654 C 35.600 47.861,67.384 47.966,111.600 47.905 L 187.600 47.800 187.600 87.713 L 187.600 127.626 139.761 127.586 C 113.449 127.564,91.819 127.648,91.694 127.773 C 91.569 127.898,91.137 128.000,90.733 128.000 C 90.330 128.000,90.000 128.157,90.000 128.350 C 90.000 128.717,87.759 129.358,86.900 129.236 C 86.625 129.197,86.400 129.347,86.400 129.570 C 86.400 129.793,86.130 129.871,85.800 129.745 C 85.470 129.618,85.200 129.714,85.200 129.957 C 85.200 130.201,84.924 130.400,84.587 130.400 C 84.251 130.400,83.871 130.670,83.745 131.000 C 83.618 131.330,83.180 131.600,82.771 131.600 C 82.363 131.600,81.815 131.998,81.555 132.484 C 80.978 133.562,77.648 136.800,77.117 136.800 C 76.906 136.800,76.808 137.023,76.899 137.296 C 76.990 137.569,76.645 138.122,76.132 138.525 C 75.619 138.928,75.200 139.515,75.200 139.829 C 75.200 140.143,75.008 140.400,74.773 140.400 C 74.524 140.400,74.455 140.743,74.607 141.223 C 74.792 141.805,74.594 142.285,73.934 142.857 C 73.147 143.541,73.000 144.049,73.000 146.100 C 73.000 147.438,72.820 148.593,72.600 148.667 C 71.879 148.908,72.094 368.600,72.815 368.600 C 73.137 368.600,73.534 368.928,73.697 369.328 C 73.898 369.819,74.242 369.977,74.755 369.814 C 75.217 369.668,75.796 369.853,76.229 370.286 C 76.622 370.679,77.046 370.930,77.171 370.845 C 77.297 370.760,77.578 371.075,77.795 371.545 C 78.064 372.128,78.573 372.410,79.395 372.432 C 80.058 372.449,80.364 372.558,80.076 372.673 C 79.668 372.836,79.704 373.052,80.236 373.640 C 80.773 374.233,81.043 374.296,81.483 373.931 C 81.917 373.571,82.017 373.581,81.923 373.978 C 81.855 374.260,82.232 374.563,82.761 374.652 C 83.736 374.816,84.871 375.962,84.558 376.468 C 84.294 376.895,85.276 377.378,86.549 377.448 C 87.181 377.483,87.811 377.680,87.949 377.886 C 88.168 378.212,89.725 379.114,91.573 379.984 C 91.889 380.132,92.339 380.601,92.573 381.027 C 92.808 381.452,93.041 381.871,93.090 381.957 C 93.140 382.043,93.459 381.883,93.799 381.600 C 94.325 381.164,94.378 381.193,94.149 381.790 C 93.914 382.401,93.991 382.433,94.730 382.037 C 95.398 381.680,95.542 381.692,95.395 382.091 C 95.086 382.935,95.853 383.817,96.470 383.327 C 96.854 383.022,97.330 383.110,98.200 383.649 C 98.860 384.057,99.850 384.615,100.400 384.888 C 100.950 385.160,101.490 385.491,101.600 385.621 C 101.834 385.898,103.221 386.526,103.800 386.617 C 104.898 386.788,106.651 387.856,106.512 388.269 C 106.412 388.567,106.653 388.659,107.177 388.522 C 107.766 388.368,108.000 388.497,108.000 388.977 C 108.000 389.350,108.189 389.530,108.427 389.383 C 108.662 389.238,108.754 388.858,108.632 388.539 C 108.507 388.213,108.584 388.066,108.806 388.204 C 109.069 388.366,109.169 354.935,109.102 289.625 C 109.046 235.271,109.084 190.800,109.187 190.800 C 109.755 190.800,256.786 338.300,256.883 338.967 C 256.952 339.436,257.408 339.863,257.985 339.998 C 258.588 340.139,259.058 340.597,259.195 341.177 C 259.398 342.039,259.758 342.343,261.600 343.208 C 261.930 343.363,262.224 343.740,262.254 344.045 C 262.283 344.350,262.328 344.808,262.354 345.063 C 262.379 345.317,262.745 345.435,263.167 345.324 C 263.741 345.174,263.968 345.360,264.067 346.062 C 264.153 346.668,264.468 347.001,264.958 347.002 C 265.374 347.003,265.869 347.318,266.058 347.702 C 266.246 348.086,266.553 348.715,266.741 349.100 C 266.928 349.485,267.468 349.858,267.941 349.928 C 268.439 350.002,268.800 350.346,268.800 350.748 C 268.800 351.659,269.573 352.400,270.523 352.400 C 271.014 352.400,271.209 352.600,271.070 352.962 C 270.811 353.637,272.074 354.881,272.850 354.717 C 273.152 354.653,273.402 354.899,273.405 355.264 C 273.412 356.102,274.788 357.655,275.263 357.361 C 275.459 357.240,275.577 357.289,275.525 357.470 C 275.351 358.073,276.419 359.600,277.014 359.600 C 277.336 359.600,277.600 359.778,277.600 359.995 C 277.600 360.450,284.031 366.800,284.493 366.800 C 284.662 366.800,284.800 366.953,284.800 367.139 C 284.800 367.550,288.037 371.200,288.402 371.200 C 288.543 371.200,291.428 373.990,294.813 377.400 C 300.815 383.447,301.730 384.110,302.720 383.120 C 303.093 382.747,303.200 382.747,303.200 383.120 C 303.200 383.827,304.274 383.704,304.559 382.964 C 304.693 382.614,304.686 382.119,304.543 381.864 C 304.378 381.570,304.480 381.583,304.821 381.900 C 305.598 382.621,306.129 382.515,305.819 381.700 C 305.605 381.139,305.652 381.099,306.056 381.500 C 306.333 381.775,306.734 382.000,306.947 382.000 C 307.159 382.000,307.212 381.878,307.063 381.730 C 306.692 381.358,308.400 379.600,309.132 379.600 C 309.458 379.600,310.281 379.176,310.962 378.658 C 311.643 378.139,312.635 377.578,313.166 377.410 C 313.698 377.242,314.572 376.582,315.109 375.944 C 315.808 375.113,316.386 374.814,317.143 374.892 C 317.935 374.973,318.186 374.827,318.146 374.311 C 318.102 373.739,318.231 373.695,318.905 374.056 C 319.624 374.441,319.691 374.391,319.490 373.623 C 319.303 372.907,319.363 372.837,319.831 373.226 C 320.355 373.660,320.572 373.470,320.444 372.689 C 320.416 372.518,320.709 372.257,321.096 372.109 C 321.483 371.961,321.980 371.693,322.200 371.513 C 322.420 371.333,323.035 370.826,323.568 370.387 C 324.156 369.901,324.833 369.683,325.296 369.830 C 325.841 370.003,326.116 369.843,326.267 369.264 C 326.384 368.819,326.708 368.543,326.988 368.651 C 327.679 368.916,328.899 367.634,328.628 366.928 C 328.507 366.615,328.567 366.456,328.759 366.575 C 328.952 366.694,329.332 366.523,329.604 366.196 C 329.876 365.868,330.269 365.600,330.478 365.600 C 330.979 365.600,331.757 364.802,332.367 363.662 C 332.879 362.706,325.090 354.000,323.723 354.000 C 323.435 354.000,323.200 353.860,323.200 353.688 C 323.200 353.423,318.266 348.301,316.713 346.955 C 316.431 346.710,314.886 345.135,313.281 343.455 C 311.675 341.775,310.190 340.400,309.981 340.400 C 309.771 340.400,309.600 340.215,309.600 339.988 C 309.600 339.761,308.970 339.022,308.200 338.346 L 306.800 337.117 306.800 192.559 L 306.800 48.000 335.100 47.953 C 350.665 47.927,363.535 47.927,363.700 47.953 C 364.103 48.016,364.070 47.130,363.644 46.457 C 363.383 46.045,363.228 46.030,363.003 46.395 C 362.591 47.062,360.355 44.581,360.658 43.792 C 360.786 43.459,360.648 43.173,360.343 43.139 C 360.044 43.106,359.599 43.058,359.354 43.033 C 358.632 42.960,357.544 41.904,357.166 40.909 C 356.972 40.401,356.406 39.830,355.907 39.639 C 354.892 39.250,353.434 37.774,353.366 37.064 C 353.342 36.809,353.294 36.356,353.261 36.057 C 353.225 35.737,352.943 35.613,352.573 35.755 C 352.148 35.918,351.051 35.093,349.173 33.200 C 347.648 31.663,346.400 30.531,346.400 30.684 C 346.400 30.837,345.680 30.259,344.800 29.400 C 343.920 28.541,343.200 27.604,343.200 27.319 C 343.200 27.033,343.041 26.800,342.847 26.800 C 342.652 26.800,342.399 26.440,342.284 26.000 C 342.133 25.423,341.738 25.200,340.866 25.200 C 340.054 25.200,339.400 24.872,338.871 24.200 C 338.439 23.650,337.907 23.200,337.689 23.200 C 337.471 23.200,337.199 22.840,337.084 22.400 C 336.969 21.960,336.577 21.600,336.214 21.600 C 335.850 21.600,335.666 21.416,335.805 21.192 C 336.260 20.456,334.223 18.443,333.458 18.872 C 332.972 19.144,332.814 19.105,332.892 18.734 C 332.951 18.451,332.595 18.157,332.100 18.082 C 331.605 18.006,331.200 17.766,331.200 17.549 C 331.200 17.331,331.044 17.249,330.853 17.367 C 330.663 17.485,330.189 17.230,329.800 16.800 C 329.411 16.370,328.939 16.114,328.751 16.230 C 328.563 16.346,328.495 16.207,328.600 15.921 C 328.975 14.900,328.152 14.177,327.354 14.826 C 326.848 15.236,326.736 15.250,326.962 14.875 C 327.393 14.160,326.050 12.730,325.200 13.000 C 324.825 13.119,323.811 12.686,322.871 12.005 L 321.207 10.800 238.046 10.800 C 164.495 10.800,154.859 10.869,154.655 11.400 M269.600 173.800 C 269.600 242.990,269.522 299.600,269.427 299.600 C 268.998 299.600,260.400 290.799,260.400 290.360 C 260.400 290.089,260.293 289.974,260.162 290.104 C 260.032 290.235,237.189 267.630,209.400 239.871 C 181.612 212.112,157.734 188.283,156.338 186.918 C 154.942 185.554,152.604 183.214,151.143 181.718 C 149.682 180.223,146.802 177.340,144.743 175.311 C 142.684 173.283,139.200 169.818,137.000 167.611 L 133.000 163.600 168.477 163.600 C 189.246 163.600,204.046 163.450,204.177 163.238 C 204.300 163.038,204.752 162.967,205.180 163.079 C 205.618 163.193,206.480 162.913,207.144 162.440 C 207.797 161.975,208.613 161.707,208.964 161.841 C 209.314 161.976,209.600 161.901,209.600 161.675 C 209.600 161.449,210.140 161.145,210.800 161.000 C 211.460 160.855,212.000 160.561,212.000 160.347 C 212.000 160.133,212.540 159.770,213.200 159.540 C 213.859 159.310,214.318 158.991,214.219 158.830 C 214.008 158.489,218.185 154.400,218.744 154.400 C 218.952 154.400,219.310 153.860,219.540 153.200 C 219.770 152.540,220.148 152.000,220.379 152.000 C 220.611 152.000,220.800 151.730,220.800 151.400 C 220.800 151.070,220.983 150.800,221.208 150.800 C 221.443 150.800,221.509 150.377,221.364 149.800 C 221.204 149.161,221.282 148.800,221.580 148.800 C 221.837 148.800,221.944 148.632,221.817 148.428 C 221.691 148.223,221.770 147.942,221.993 147.804 C 222.217 147.666,222.400 147.023,222.400 146.376 C 222.400 145.729,222.601 145.200,222.847 145.200 C 223.096 145.200,223.201 144.847,223.084 144.400 C 222.969 143.960,223.038 143.600,223.237 143.600 C 223.452 143.600,223.600 124.109,223.600 95.800 L 223.600 48.000 246.600 48.000 L 269.600 48.000 269.600 173.800 " stroke="none" fill="#f47c14" fill-rule="evenodd"></path><path id="path1" d="M77.398 11.203 C 77.261 11.424,77.386 11.696,77.675 11.806 C 78.962 12.297,154.533 11.800,154.700 11.300 C 154.916 10.653,77.798 10.557,77.398 11.203 M186.800 87.200 L 186.800 126.800 141.000 126.800 C 110.733 126.800,95.200 126.936,95.200 127.200 C 95.200 127.464,110.867 127.600,141.400 127.600 L 187.600 127.600 187.600 87.600 C 187.600 61.200,187.464 47.600,187.200 47.600 C 186.936 47.600,186.800 61.067,186.800 87.200 M89.080 127.991 C 87.505 128.551,86.552 129.231,87.398 129.190 C 88.415 129.141,90.000 128.629,90.000 128.350 C 90.000 128.157,90.360 128.000,90.800 128.000 C 91.240 128.000,91.600 127.820,91.600 127.600 C 91.600 127.114,91.496 127.130,89.080 127.991 M79.000 134.400 C 77.694 135.720,76.831 136.800,77.083 136.800 C 77.642 136.800,81.600 132.938,81.600 132.392 C 81.600 131.789,81.532 131.841,79.000 134.400 M76.182 137.742 C 75.205 138.813,75.109 139.362,76.031 138.604 C 76.564 138.167,77.057 137.780,77.127 137.744 C 77.196 137.709,77.106 137.591,76.927 137.482 C 76.747 137.373,76.412 137.490,76.182 137.742 M73.738 142.203 C 73.483 142.751,73.361 143.200,73.466 143.200 C 73.829 143.200,74.800 142.056,74.800 141.629 C 74.800 140.863,74.212 141.181,73.738 142.203 M222.400 146.320 C 222.400 146.936,222.184 147.656,221.920 147.920 C 221.547 148.293,221.549 148.400,221.930 148.400 C 222.430 148.400,223.200 146.808,223.200 145.774 C 223.200 145.458,223.020 145.200,222.800 145.200 C 222.580 145.200,222.400 145.704,222.400 146.320 M72.000 147.600 C 72.000 148.436,72.170 148.810,72.500 148.700 C 72.775 148.608,73.000 148.113,73.000 147.600 C 73.000 147.087,72.775 146.592,72.500 146.500 C 72.170 146.390,72.000 146.764,72.000 147.600 M221.200 149.400 C 221.200 149.730,221.380 150.000,221.600 150.000 C 221.820 150.000,222.000 149.730,222.000 149.400 C 222.000 149.070,221.820 148.800,221.600 148.800 C 221.380 148.800,221.200 149.070,221.200 149.400 M71.867 149.467 C 71.415 149.918,71.548 341.521,72.000 341.800 C 72.266 341.965,72.400 309.804,72.400 245.624 C 72.400 192.591,72.340 149.200,72.267 149.200 C 72.193 149.200,72.013 149.320,71.867 149.467 M216.076 156.600 C 214.827 157.810,214.037 158.800,214.322 158.800 C 214.813 158.800,218.800 155.078,218.800 154.619 C 218.800 154.103,218.216 154.527,216.076 156.600 M207.200 162.400 C 206.650 162.830,206.327 163.186,206.481 163.191 C 207.049 163.209,208.800 162.261,208.800 161.936 C 208.800 161.404,208.280 161.555,207.200 162.400 M137.000 167.611 C 139.200 169.818,142.684 173.283,144.743 175.311 C 146.802 177.340,149.682 180.223,151.143 181.718 C 152.604 183.214,154.941 185.554,156.336 186.918 C 157.731 188.283,176.586 207.085,198.235 228.700 C 219.884 250.315,237.718 268.000,237.865 268.000 C 238.163 268.000,194.988 224.566,184.600 214.416 C 183.280 213.126,178.780 208.623,174.600 204.410 C 170.420 200.197,165.920 195.692,164.600 194.400 C 163.280 193.107,155.954 185.783,148.320 178.125 L 134.440 164.200 168.296 164.305 C 190.723 164.374,202.288 164.272,202.555 164.005 C 202.828 163.732,191.560 163.600,167.980 163.600 L 133.000 163.600 137.000 167.611 M109.572 191.770 C 110.074 192.304,110.377 192.914,110.246 193.125 C 110.116 193.337,110.322 193.485,110.704 193.455 C 111.138 193.421,111.379 193.662,111.345 194.096 C 111.315 194.478,111.436 194.701,111.615 194.591 C 112.086 194.300,114.540 196.650,114.252 197.117 C 114.118 197.333,114.322 197.485,114.704 197.455 C 115.117 197.422,115.381 197.663,115.353 198.047 C 115.327 198.411,115.589 198.673,115.953 198.647 C 116.337 198.619,116.578 198.883,116.545 199.296 C 116.515 199.678,116.657 199.889,116.860 199.763 C 117.417 199.419,120.519 202.684,120.171 203.247 C 119.982 203.553,120.047 203.618,120.353 203.429 C 121.004 203.026,123.383 205.380,122.982 206.030 C 122.782 206.353,122.841 206.422,123.153 206.229 C 123.716 205.881,126.981 208.983,126.637 209.540 C 126.511 209.743,126.722 209.885,127.104 209.855 C 127.517 209.822,127.781 210.063,127.753 210.447 C 127.727 210.811,127.989 211.073,128.353 211.047 C 128.737 211.019,128.978 211.283,128.945 211.696 C 128.915 212.078,129.052 212.291,129.250 212.169 C 129.797 211.831,134.505 216.706,134.165 217.257 C 133.983 217.550,134.050 217.616,134.345 217.434 C 134.641 217.251,157.337 239.691,195.626 278.020 C 229.073 311.501,256.557 338.777,256.702 338.632 C 256.994 338.340,109.620 190.810,109.030 190.804 C 108.827 190.802,109.071 191.237,109.572 191.770 M240.403 270.493 C 240.399 270.900,243.958 274.577,244.156 274.369 C 244.244 274.276,243.437 273.300,242.362 272.200 C 241.287 271.100,240.405 270.332,240.403 270.493 M244.800 275.068 C 244.800 275.579,246.335 276.998,246.601 276.732 C 246.709 276.625,246.348 276.114,245.798 275.599 C 245.249 275.083,244.800 274.844,244.800 275.068 M253.339 283.800 C 256.530 286.990,259.272 289.600,259.432 289.600 C 259.591 289.600,257.130 286.990,253.961 283.801 C 250.792 280.611,248.051 278.001,247.868 278.001 C 247.686 278.000,250.147 280.610,253.339 283.800 M260.400 290.575 C 260.400 290.839,262.487 292.951,263.400 293.612 C 263.840 293.931,263.393 293.338,262.406 292.296 C 260.643 290.433,260.400 290.225,260.400 290.575 M264.799 295.398 C 265.314 295.948,265.825 296.309,265.932 296.201 C 266.198 295.935,264.779 294.400,264.268 294.400 C 264.044 294.400,264.283 294.849,264.799 295.398 M266.817 296.983 C 267.725 298.202,268.850 299.283,269.027 299.106 C 269.116 299.018,268.524 298.328,267.711 297.573 C 266.899 296.818,266.497 296.552,266.817 296.983 M258.075 340.425 C 258.171 340.714,258.486 341.029,258.775 341.125 C 259.075 341.225,259.225 341.075,259.125 340.775 C 259.029 340.486,258.714 340.171,258.425 340.075 C 258.125 339.975,257.975 340.125,258.075 340.425 M260.800 343.029 C 260.800 343.154,261.049 343.506,261.352 343.810 C 262.036 344.493,262.561 344.076,261.948 343.337 C 261.497 342.794,260.800 342.607,260.800 343.029 M263.238 345.900 C 263.533 346.285,263.825 346.675,263.887 346.767 C 263.949 346.858,264.000 346.543,264.000 346.067 C 264.000 345.534,263.750 345.200,263.351 345.200 C 262.796 345.200,262.779 345.301,263.238 345.900 M316.088 346.392 C 316.360 346.828,316.852 347.288,317.182 347.414 C 317.512 347.541,317.349 347.184,316.821 346.622 C 315.669 345.397,315.417 345.317,316.088 346.392 M265.200 347.291 C 265.200 348.020,265.909 348.624,266.303 348.231 C 266.440 348.093,266.248 347.677,265.876 347.305 C 265.253 346.681,265.200 346.680,265.200 347.291 " stroke="none" fill="#f4741c" fill-rule="evenodd"></path><path id="path2" d="" stroke="none" fill="#f47c1c" fill-rule="evenodd"></path><path id="path3" d="M294.800 377.800 C 297.984 380.990,300.680 383.600,300.790 383.600 C 300.900 383.600,298.384 380.990,295.200 377.800 C 292.016 374.610,289.320 372.000,289.210 372.000 C 289.100 372.000,291.616 374.610,294.800 377.800 M316.476 375.451 C 316.188 375.763,315.755 375.896,315.514 375.747 C 315.251 375.584,315.191 375.661,315.362 375.939 C 315.577 376.287,315.867 376.289,316.524 375.947 C 317.677 375.348,317.709 375.314,317.327 375.082 C 317.147 374.973,316.764 375.139,316.476 375.451 M108.571 388.819 C 108.571 389.238,108.782 389.661,109.040 389.760 C 109.337 389.874,109.435 389.654,109.306 389.164 C 109.029 388.103,108.571 387.888,108.571 388.819 " stroke="none" fill="#f87c14" fill-rule="evenodd"></path><path id="path4" d="M294.800 377.800 C 297.984 380.990,300.680 383.600,300.790 383.600 C 300.900 383.600,298.384 380.990,295.200 377.800 C 292.016 374.610,289.320 372.000,289.210 372.000 C 289.100 372.000,291.616 374.610,294.800 377.800 M316.476 375.451 C 316.188 375.763,315.755 375.896,315.514 375.747 C 315.251 375.584,315.191 375.661,315.362 375.939 C 315.577 376.287,315.867 376.289,316.524 375.947 C 317.677 375.348,317.709 375.314,317.327 375.082 C 317.147 374.973,316.764 375.139,316.476 375.451 M108.571 388.819 C 108.571 389.238,108.782 389.661,109.040 389.760 C 109.337 389.874,109.435 389.654,109.306 389.164 C 109.029 388.103,108.571 387.888,108.571 388.819 " stroke="none" fill="#f87c14" fill-rule="evenodd"></path></g></svg>